<svg id="Capa_1" enable-background="new 0 0 562 562" height="512" viewBox="0 0 562 562" width="512" xmlns="http://www.w3.org/2000/svg"><path d="m403.938 140.5h-48.538l-7.855-15.71c-5.951-11.903-18.111-19.415-31.42-19.415h-70.25c-13.309 0-25.469 7.512-31.42 19.415l-7.855 15.71h-48.537c-87.161 0-158.063 70.901-158.063 158.062s70.902 158.062 158.062 158.062c36.411 0 71.107-12.383 99.183-35.125h47.508c28.076 22.742 62.772 35.125 99.183 35.125 87.161 0 158.062-70.902 158.062-158.062s-70.9-158.062-158.06-158.062zm-193.188 175.625h-35.125v35.125h-35.125v-35.125h-35.125v-35.125h35.125v-35.125h35.125v35.125h35.125zm193.188-70.25c9.699 0 17.562 7.862 17.562 17.562 0 9.699-7.864 17.563-17.562 17.563-9.699 0-17.563-7.864-17.563-17.563 0-9.701 7.864-17.562 17.563-17.562zm-35.125 70.25c-9.699 0-17.562-7.864-17.562-17.563 0-9.701 7.864-17.562 17.562-17.562 9.699 0 17.563 7.862 17.563 17.562-.001 9.699-7.865 17.563-17.563 17.563zm35.125 35.125c-9.699 0-17.563-7.864-17.563-17.563 0-9.701 7.864-17.562 17.563-17.562s17.562 7.862 17.562 17.562c0 9.699-7.864 17.563-17.562 17.563zm35.124-35.125c-9.699 0-17.563-7.864-17.563-17.563 0-9.701 7.864-17.562 17.563-17.562s17.562 7.862 17.562 17.562c.001 9.699-7.863 17.563-17.562 17.563z"/></svg>