<svg id="Capa_1" enable-background="new 0 0 527.999 527.999" height="512" viewBox="0 0 527.999 527.999" width="512" xmlns="http://www.w3.org/2000/svg"><path id="path-1_29_" d="m391.168 202.832c6.444 6.444 6.444 16.891 0 23.335s-16.891 6.444-23.335 0-6.444-16.891 0-23.335c6.444-6.443 16.891-6.443 23.335 0" transform="translate(10.951 5.951)"/><path id="path-1_28_" d="m391.168 268.832c6.444 6.444 6.444 16.891 0 23.335s-16.891 6.444-23.335 0-6.444-16.891 0-23.335c6.444-6.443 16.891-6.443 23.335 0" transform="translate(10.951 7.951)"/><path id="path-1_27_" d="m358.167 235.832c6.444 6.444 6.444 16.891 0 23.335s-16.891 6.444-23.335 0-6.444-16.891 0-23.335c6.444-6.443 16.891-6.443 23.335 0" transform="translate(9.951 6.951)"/><path id="path-1_26_" d="m424.167 235.832c6.444 6.444 6.444 16.891 0 23.335s-16.891 6.444-23.335 0-6.444-16.891 0-23.335c6.445-6.443 16.892-6.443 23.335 0" transform="translate(11.951 6.951)"/><path d="m165 197.972-33 .028v33h-33v33h33v33l33-.024v-33.012l33 .036v-33l-33-.048z"/><path d="m396 132h-264c-72.784 0-132 59.216-132 132s59.216 132 132 132c32.307 0 62.987-11.666 87.14-33h89.719c24.154 21.334 54.833 33 87.14 33 72.784 0 132-59.216 132-132s-59.216-132-131.999-132zm0 231c-25.926 0-50.467-10.055-69.126-28.295-3.078-3.013-7.219-4.705-11.537-4.705h-102.674c-4.318 0-8.459 1.692-11.537 4.705-18.66 18.24-43.2 28.295-69.126 28.295-54.592 0-99-44.408-99-99s44.408-99 99-99h264c54.592 0 99 44.408 99 99s-44.409 99-99 99z"/></svg>