<?xml version="1.0" encoding="iso-8859-1"?>
<!-- Generator: Adobe Illustrator 16.0.0, SVG Export Plug-In . SVG Version: 6.00 Build 0)  -->
<!DOCTYPE svg PUBLIC "-//W3C//DTD SVG 1.1//EN" "http://www.w3.org/Graphics/SVG/1.1/DTD/svg11.dtd">
<svg version="1.1" id="Capa_1" xmlns="http://www.w3.org/2000/svg" xmlns:xlink="http://www.w3.org/1999/xlink" x="0px" y="0px"
	 width="107.667px" height="107.667px" viewBox="0 0 107.667 107.667" style="enable-background:new 0 0 107.667 107.667;"
	 xml:space="preserve">
<g>
	<path d="M46.358,69.428c-0.001-0.317-0.004-0.638-0.004-0.951c0-16.314,2.104-66.646,2.104-66.646c0-1.01-0.819-1.83-1.83-1.83
		H20.55c-1.011,0-1.83,0.82-1.83,1.83c0,0,2.104,50.332,2.104,66.646c0,16.315-2.104,37.361-2.104,37.361
		c0,1.012,0.819,1.829,1.83,1.829h19.49c-2.478-2.469-3.905-7.112-3.905-13.312C36.135,85.444,39.35,73.581,46.358,69.428z
		 M44.196,13.241c0,0.666-0.136,1.297-0.37,1.877c-0.399-0.615-0.883-1.252-1.423-1.877c0.54-0.625,1.023-1.264,1.422-1.877
		C44.061,11.946,44.196,12.577,44.196,13.241z M42.702,16.809c-0.905,0.893-2.146,1.447-3.52,1.447
		c-0.882,0-1.698-0.248-2.418-0.648c0.3-0.133,0.641-0.299,1.008-0.512c0.847-0.455,1.79-1.131,2.702-1.924
		C41.223,15.821,41.983,16.372,42.702,16.809z M39.183,8.229c1.371,0,2.614,0.553,3.52,1.447c-0.719,0.434-1.479,0.986-2.228,1.633
		c-0.912-0.791-1.855-1.467-2.702-1.924c-0.367-0.211-0.708-0.379-1.008-0.51C37.484,8.475,38.301,8.229,39.183,8.229z
		 M36.033,9.368c0.143,0.334,0.334,0.736,0.585,1.172c0.456,0.844,1.132,1.791,1.923,2.701c-0.791,0.912-1.467,1.857-1.923,2.703
		c-0.251,0.432-0.442,0.836-0.585,1.17c-1.129-0.918-1.865-2.303-1.865-3.873C34.168,11.673,34.904,10.29,36.033,9.368z
		 M27.946,63.594c0-3.117,2.526-5.644,5.643-5.644c3.117,0,5.642,2.524,5.642,5.644c0,3.114-2.525,5.641-5.642,5.641
		C30.472,69.234,27.946,66.708,27.946,63.594z M60.273,84.191c0.332,0,0.641-0.09,0.909-0.245c0.219,0.493,0.343,1.037,0.343,1.61
		c0,0.412-0.062,0.808-0.178,1.181c-0.303-0.222-0.672-0.354-1.074-0.354c-1.006,0-1.822,0.815-1.822,1.821
		c0,0.422,0.146,0.81,0.385,1.117c-0.405,0.14-0.84,0.22-1.295,0.22s-0.889-0.08-1.295-0.22c0.239-0.31,0.385-0.695,0.385-1.117
		c0-1.006-0.815-1.821-1.821-1.821c-0.402,0-0.773,0.133-1.074,0.354c-0.115-0.373-0.178-0.769-0.178-1.181
		c0-0.573,0.123-1.117,0.342-1.61c0.268,0.155,0.578,0.245,0.91,0.245c1.006,0,1.821-0.815,1.821-1.821
		c0-0.231-0.045-0.452-0.125-0.655c0.33-0.09,0.677-0.142,1.035-0.142c0.357,0,0.705,0.052,1.035,0.142
		c-0.08,0.203-0.125,0.424-0.125,0.655C58.451,83.376,59.268,84.191,60.273,84.191z M51.285,79.514h1.281l-0.641,0.777
		L51.285,79.514z M54.715,77.551l-0.777,0.641v-1.28L54.715,77.551z M67.86,85.871l0.692-0.57v1.143L67.86,85.871z M51.926,74.809
		l0.641,0.775h-1.281L51.926,74.809z M70.264,83.426l0.571,0.692h-1.144L70.264,83.426z M72.06,85.301l0.691,0.57l-0.691,0.571
		V85.301z M49.232,77.551l0.776-0.641v1.28L49.232,77.551z M76.437,69.975c0,0-3.438,1.988-8.9,2.72l-3.363,0.004
		c-5.685-0.72-9.891-2.784-9.891-2.784c-14.898,0-18.275,37.753-7.12,37.753c9.386,0,6.315-15.131,19.169-15.131
		c10.396,0,9.563,14.991,16.498,14.991C93.947,107.527,88.771,69.975,76.437,69.975z M69.289,75.631
		c0.707,0,1.281,0.572,1.281,1.279s-0.574,1.28-1.281,1.28s-1.279-0.573-1.279-1.28S68.582,75.631,69.289,75.631z M64.939,74.545
		c0.256,0,0.497,0.053,0.719,0.141c-0.234,0.154-0.479,0.34-0.719,0.546c-0.238-0.206-0.484-0.392-0.719-0.544
		C64.443,74.596,64.686,74.545,64.939,74.545z M48.652,77.551c0-1.809,1.466-3.272,3.273-3.272c1.807,0,3.272,1.465,3.272,3.272
		c0,1.807-1.465,3.271-3.272,3.271C50.118,80.822,48.652,79.357,48.652,77.551z M57.541,89.922c-2.41,0-4.365-1.953-4.365-4.363
		s1.955-4.363,4.365-4.363c2.41,0,4.363,1.953,4.363,4.363S59.951,89.922,57.541,89.922z M60.925,78.19
		c-0.706,0-1.279-0.573-1.279-1.28s0.573-1.279,1.279-1.279c0.707,0,1.281,0.572,1.281,1.279S61.632,78.19,60.925,78.19z
		 M63.021,76.465c0-0.524,0.212-1.002,0.555-1.349c0.166,0.274,0.379,0.565,0.625,0.854c-0.304,0.35-0.562,0.711-0.736,1.035
		c-0.08,0.141-0.146,0.271-0.195,0.385C63.115,77.114,63.021,76.803,63.021,76.465z M64.939,78.385c-0.602,0-1.13-0.281-1.482-0.715
		c0.127-0.054,0.281-0.128,0.448-0.224c0.323-0.175,0.687-0.435,1.034-0.736c0.35,0.304,0.712,0.562,1.035,0.736
		c0.166,0.096,0.32,0.17,0.447,0.224C66.071,78.102,65.541,78.385,64.939,78.385z M66.612,77.389
		c-0.052-0.113-0.114-0.244-0.196-0.385c-0.174-0.324-0.433-0.687-0.735-1.035c0.248-0.287,0.459-0.578,0.627-0.854
		c0.342,0.348,0.555,0.822,0.555,1.348C66.861,76.803,66.766,77.114,66.612,77.389z M70.264,88.791c-1.613,0-2.921-1.308-2.921-2.92
		c0-1.613,1.308-2.921,2.921-2.921c1.612,0,2.921,1.308,2.921,2.921C73.185,87.483,71.876,88.791,70.264,88.791z M75.219,81.639
		c-0.771,0-1.396-0.627-1.396-1.396c0-0.771,0.625-1.396,1.396-1.396s1.396,0.625,1.396,1.396
		C76.615,81.012,75.989,81.639,75.219,81.639z M78.011,75.375c0.771,0,1.396,0.625,1.396,1.396c0,0.771-0.627,1.396-1.396,1.396
		s-1.396-0.625-1.396-1.396C76.615,76,77.24,75.375,78.011,75.375z M78.328,84.43c-0.771,0-1.396-0.625-1.396-1.396
		s0.625-1.396,1.396-1.396c0.771,0,1.396,0.625,1.396,1.396C79.725,83.805,79.1,84.43,78.328,84.43z M81.121,80.96
		c-0.771,0-1.396-0.625-1.396-1.396c0-0.771,0.625-1.396,1.396-1.396c0.771,0,1.396,0.626,1.396,1.396
		C82.518,80.335,81.893,80.96,81.121,80.96z M69.692,87.624h1.144l-0.571,0.693L69.692,87.624z"/>
</g>
<g>
</g>
<g>
</g>
<g>
</g>
<g>
</g>
<g>
</g>
<g>
</g>
<g>
</g>
<g>
</g>
<g>
</g>
<g>
</g>
<g>
</g>
<g>
</g>
<g>
</g>
<g>
</g>
<g>
</g>
</svg>
